<?xml version="1.0" encoding="utf-8"?>
<!-- Generator: Adobe Illustrator 26.0.3, SVG Export Plug-In . SVG Version: 6.00 Build 0)  -->
<svg version="1.1" id="Слой_1" xmlns="http://www.w3.org/2000/svg" xmlns:xlink="http://www.w3.org/1999/xlink" x="0px" y="0px"
	 viewBox="0 0 108.5 19.2" style="enable-background:new 0 0 108.5 19.2;" xml:space="preserve">
<style type="text/css">
	.st0{display:none;}
	.st1{display:inline;}
	.st2{fill:#1D1D1B;}
</style>
<g class="st0">
	<path class="st1" d="M8.3,10.2L8.6,11c0.1-0.3,0.2-0.5,0.4-0.8s0.2-0.5,0.4-0.7L14,0.6c0.1-0.1,0.1-0.2,0.2-0.3
		c0.1-0.1,0.1-0.1,0.2-0.1c0.1,0,0.2-0.1,0.2-0.1h2.6v15.9h-2.6V5.8c0-0.2,0-0.4,0-0.6s0-0.5,0-0.7l-4.8,9c-0.1,0.2-0.2,0.4-0.4,0.5
		c-0.2,0.1-0.4,0.2-0.6,0.2H8.4c-0.2,0-0.4-0.1-0.6-0.2c-0.2-0.1-0.3-0.3-0.4-0.5l-4.9-9c0,0.2,0,0.5,0.1,0.7s0,0.4,0,0.6v10.3H0
		V0.2h2.6c0.1,0,0.2,0,0.3,0.1C2.9,0.3,3,0.3,3,0.4c0.1,0.1,0.1,0.2,0.2,0.3L8,9.5C8.1,9.7,8.2,10,8.3,10.2z"/>
	<path class="st1" d="M39,8.2c0,1.1-0.2,2.2-0.6,3.2c-0.4,1-0.9,1.8-1.6,2.6c-0.7,0.7-1.6,1.3-2.5,1.7c-2.1,0.8-4.5,0.8-6.6,0
		c-1-0.4-1.8-1-2.5-1.7c-0.7-0.7-1.3-1.6-1.6-2.6c-0.4-1-0.6-2.1-0.6-3.2c0-1.1,0.2-2.2,0.6-3.2c0.4-1,0.9-1.8,1.6-2.6
		c0.7-0.8,1.6-1.4,2.6-1.8C28.7,0.2,29.9,0,31,0c1.1,0,2.2,0.2,3.3,0.6c1,0.4,1.8,1,2.5,1.7c0.7,0.7,1.3,1.6,1.6,2.6
		C38.9,5.9,39,7.1,39,8.2z M36,8.2c0-0.8-0.1-1.6-0.3-2.4c-0.2-0.7-0.5-1.3-1-1.8c-0.4-0.5-1-0.9-1.6-1.1c-1.4-0.5-2.8-0.5-4.2,0
		c-0.6,0.2-1.2,0.6-1.6,1.1c-0.5,0.5-0.8,1.1-1,1.8c-0.2,0.8-0.4,1.6-0.4,2.4c0,0.8,0.1,1.6,0.4,2.4c0.2,0.6,0.5,1.2,1,1.8
		c0.4,0.5,1,0.9,1.6,1.1c1.4,0.5,2.8,0.5,4.2,0c0.6-0.2,1.1-0.6,1.6-1.1c0.5-0.5,0.8-1.1,1-1.8C35.9,9.8,36,9,36,8.2z"/>
	<path class="st1" d="M59.9,8.2c0,0.7-0.1,1.3-0.2,2c-0.1,0.6-0.4,1.2-0.6,1.8c-0.3,0.6-0.6,1.1-1,1.6c-0.4,0.5-0.8,0.9-1.3,1.2
		l4,4.4h-2.4c-0.3,0-0.7,0-1-0.1c-0.3-0.1-0.6-0.3-0.8-0.5L54.2,16c-0.4,0.1-0.8,0.2-1.2,0.2c-0.4,0.1-0.8,0.1-1.2,0.1
		c-1.1,0-2.2-0.2-3.3-0.6c-0.9-0.4-1.8-1-2.5-1.7c-0.7-0.7-1.3-1.6-1.6-2.6c-0.4-1-0.6-2.1-0.6-3.2c0-1.1,0.2-2.2,0.6-3.2
		c0.4-1,0.9-1.9,1.6-2.6c0.7-0.7,1.6-1.3,2.6-1.7c1-0.4,2.2-0.6,3.3-0.6c1.1,0,2.2,0.2,3.3,0.6c1,0.4,1.8,1,2.5,1.7
		c0.7,0.7,1.3,1.6,1.6,2.6C59.7,5.9,59.9,7.1,59.9,8.2z M56.9,8.2c0-0.8-0.1-1.6-0.3-2.4c-0.2-0.7-0.5-1.3-1-1.8
		c-0.4-0.5-1-0.9-1.6-1.1c-1.4-0.5-2.8-0.5-4.2,0c-0.6,0.2-1.2,0.6-1.6,1.1c-0.5,0.5-0.8,1.1-1,1.8c-0.3,0.8-0.4,1.6-0.4,2.4
		c0,0.8,0.1,1.6,0.3,2.4c0.2,0.6,0.5,1.2,1,1.8c0.4,0.5,1,0.9,1.6,1.1c1.4,0.5,2.8,0.5,4.2,0c0.6-0.2,1.1-0.6,1.6-1.1
		c0.5-0.5,0.8-1.1,1-1.8C56.8,9.8,56.9,9,56.9,8.2L56.9,8.2z"/>
	<path class="st1" d="M71.9,13.7c0.5,0,1-0.1,1.5-0.3c0.4-0.2,0.8-0.5,1.1-0.8c0.3-0.4,0.6-0.8,0.7-1.2c0.2-0.5,0.3-1.1,0.2-1.6V0.2
		h3v9.5c0,0.9-0.1,1.8-0.5,2.6c-0.3,0.8-0.7,1.5-1.3,2.1c-0.6,0.6-1.3,1.1-2.1,1.4c-1.8,0.7-3.7,0.7-5.5,0c-1.6-0.6-2.8-1.9-3.4-3.4
		c-0.3-0.8-0.5-1.7-0.5-2.6V0.2h3v9.5c0,0.6,0.1,1.1,0.2,1.6c0.1,0.5,0.4,0.9,0.7,1.3c0.3,0.4,0.7,0.6,1.1,0.8
		C70.9,13.6,71.4,13.7,71.9,13.7z"/>
	<path class="st1" d="M88.2,16.1h-3V0.2h3V16.1z"/>
	<path class="st1" d="M96.9,0.2c0.1,0,0.2,0,0.2,0.1c0.1,0,0.1,0.1,0.2,0.1c0.1,0.1,0.2,0.2,0.2,0.2l8.4,10.6c0-0.3,0-0.5-0.1-0.8
		s0-0.5,0-0.7V0.2h2.6v15.9H107c-0.2,0-0.4,0-0.6-0.1c-0.2-0.1-0.3-0.2-0.4-0.4L97.6,5c0,0.2,0,0.5,0,0.7c0,0.2,0,0.4,0,0.6v9.8
		h-2.5V0.2h1.6H96.9z"/>
</g>
<path class="st2" d="M52,8.4l1.7-5.1c0.4-1.1-0.2-2.3-1.4-2.7c-1.1-0.4-2.3,0.2-2.7,1.4l-3,9.3c0,0,0,0,0,0c0,0,0,0,0,0.1
	c0,0,0,0,0,0c0,0,0,0,0,0.1c0,0,0,0,0,0c0,0,0,0,0,0.1c0,0,0,0,0,0c0,0,0,0,0,0.1c0,0,0,0,0,0c0,0,0,0,0,0.1c0,0,0,0,0,0
	c0,0,0,0,0,0.1c0,0,0,0,0,0c0,0,0,0,0,0.1c0,0,0,0,0,0.1c0,0,0,0,0,0c0,0,0,0,0,0.1c0,0,0,0,0,0c0,0,0,0,0,0.1c0,0,0,0,0,0
	c0,0,0,0,0,0.1c0,0,0,0,0,0c0,0,0,0,0,0.1c0,0,0,0,0,0c0,0,0,0,0,0.1c0,0,0,0,0,0c0,0,0,0,0,0.1c0,0,0,0,0,0c0,0,0,0,0,0
	c0,0,0,0,0,0.1c0,0,0,0,0,0c0,0,0,0,0,0c0,0,0,0,0,0.1c0,0,0,0,0,0c0,0,0,0,0,0.1c0,0,0,0,0,0c0,0,0,0,0,0.1c0,0,0,0,0,0
	c0,0,0,0,0,0.1c0,0,0,0,0,0c0,0,0,0,0.1,0.1c0,0,0,0,0,0c0,0,0,0,0.1,0.1c0,0,0,0,0,0c0,0,0,0,0,0.1c0,0,0,0,0,0c0,0,0,0,0,0
	c0,0,0,0,0,0c0,0,0,0,0,0c0,0,0,0,0.1,0c0,0,0,0,0,0c0,0,0,0,0.1,0.1c0,0,0,0,0,0c0,0,0,0,0.1,0.1c0,0,0,0,0,0c0,0,0,0,0.1,0
	c0,0,0,0,0,0c0,0,0,0,0.1,0c0,0,0,0,0,0c0,0,0,0,0.1,0c0,0,0,0,0,0c0,0,0,0,0.1,0c0,0,0,0,0,0c0,0,0,0,0,0c0,0,0,0,0.1,0
	c0,0,0,0,0,0c0,0,0,0,0,0c0,0,0,0,0.1,0c0,0,0,0,0,0c0,0,0,0,0.1,0c0,0,0,0,0,0c0,0,0,0,0.1,0c0,0,0,0,0,0c0,0,0,0,0.1,0
	c0,0,0,0,0,0c0,0,0,0,0.1,0c0,0,0,0,0,0c0,0,0,0,0.1,0c0,0,0,0,0.1,0c0,0,0,0,0.1,0c0,0,0,0,0.1,0c0,0,0,0,0,0c0,0,0,0,0.1,0
	c0,0,0,0,0,0c0,0,0,0,0.1,0c0,0,0,0,0,0c0,0,0,0,0.1,0c0,0,0,0,0,0c0,0,0,0,0.1,0c0,0,0,0,0,0c0,0,0,0,0.1,0c0,0,0,0,0,0
	c0,0,0,0,0.1,0c0,0,0,0,0,0l3.8-1.4c1.1-0.4,1.7-1.6,1.3-2.7C54.1,8.7,53,8.1,52,8.4 M62.2,5C62.2,4.9,62.2,4.9,62.2,5
	c0-0.1,0-0.1,0-0.1c0,0,0,0,0,0c0,0,0,0,0-0.1c0,0,0,0,0,0c0,0,0,0,0-0.1c0,0,0,0,0,0c0,0,0,0,0-0.1c0,0,0,0,0,0c0,0,0,0,0-0.1
	c0,0,0,0,0,0c0,0,0,0,0-0.1c0,0,0,0,0,0c0,0,0,0,0-0.1c0,0,0,0,0,0c0,0,0,0,0,0c0,0,0,0,0-0.1c0,0,0,0,0,0c0,0,0,0,0,0
	c0,0,0,0,0-0.1c0,0,0,0,0,0c0,0,0,0,0-0.1c0,0,0,0,0,0c0,0,0,0,0-0.1c0,0,0,0,0,0c0,0,0,0,0-0.1c0,0,0,0,0,0c0,0,0,0-0.1-0.1
	c0,0,0,0,0,0c0,0,0,0-0.1-0.1c0,0,0,0,0,0c0,0,0,0,0-0.1c0,0,0,0,0,0c0,0,0,0,0,0c0,0,0,0,0,0c0,0,0,0,0,0c0,0,0,0-0.1,0
	c0,0,0,0,0,0c0,0,0,0-0.1-0.1c0,0,0,0,0,0c0,0,0,0-0.1-0.1c0,0,0,0,0,0c0,0,0,0-0.1,0c0,0,0,0,0,0c0,0,0,0-0.1,0c0,0,0,0,0,0
	c0,0,0,0-0.1,0c0,0,0,0,0,0c0,0,0,0-0.1,0c0,0,0,0,0,0c0,0,0,0,0,0c0,0,0,0-0.1,0c0,0,0,0,0,0c0,0,0,0,0,0c0,0,0,0-0.1,0
	c0,0,0,0,0,0c0,0,0,0-0.1,0c0,0,0,0,0,0c0,0,0,0-0.1,0c0,0,0,0,0,0c0,0,0,0-0.1,0c0,0,0,0,0,0c0,0,0,0-0.1,0c0,0,0,0,0,0
	c0,0,0,0-0.1,0c0,0,0,0-0.1,0c0,0,0,0-0.1,0c0,0,0,0-0.1,0c0,0,0,0,0,0c0,0,0,0-0.1,0c0,0,0,0,0,0c0,0,0,0-0.1,0c0,0,0,0,0,0
	c0,0,0,0-0.1,0c0,0,0,0,0,0c0,0,0,0-0.1,0c0,0,0,0,0,0c0,0,0,0-0.1,0c0,0,0,0,0,0c0,0,0,0-0.1,0c0,0,0,0,0,0l-3.8,1.4
	c-1.1,0.4-1.7,1.6-1.3,2.7c0.4,1,1.4,1.6,2.5,1.4l-2.2,6.9c-0.4,1.1,0.2,2.3,1.4,2.7c1.1,0.4,2.3-0.2,2.7-1.4l3.6-11c0,0,0,0,0,0
	c0,0,0,0,0-0.1c0,0,0,0,0,0c0,0,0,0,0-0.1c0,0,0,0,0,0c0,0,0,0,0-0.1c0,0,0,0,0,0c0,0,0,0,0-0.1c0,0,0,0,0,0c0,0,0,0,0-0.1
	c0,0,0,0,0,0C62.2,5,62.2,5,62.2,5C62.2,5,62.2,5,62.2,5"/>
</svg>
